<svg width="18" height="28" viewBox="0 0 18 28" fill="none" xmlns="http://www.w3.org/2000/svg">
<g clip-path="url(#clip0_433_230)">
<path d="M18 3.93923V0H5.1804V11.8547C2.13973 13.1308 0 16.1083 0 19.5852C0 24.2272 3.82899 28 8.54015 28C13.2513 28 17.0803 24.2272 17.0803 19.5852C17.0803 15.609 14.2649 12.2985 10.5109 11.4108V10.5416H17.0803V6.60238H10.5109V3.93923H18ZM12.2377 19.5852C12.2377 21.5826 10.586 23.21 8.55892 23.21C6.5318 23.21 4.88008 21.5826 4.88008 19.5852C4.88008 17.5878 6.5318 15.9604 8.55892 15.9604C10.586 15.9604 12.2377 17.5878 12.2377 19.5852Z" fill="#FFF173"/>
</g>
<defs>
<clipPath id="clip0_433_230">
<rect width="18" height="28" fill="white"/>
</clipPath>
</defs>
</svg>
