<svg width="70" height="45" viewBox="0 0 56 34" fill="none" xmlns="http://www.w3.org/2000/svg">
<g filter="url(#filter0_d_210_737)">
<rect x="8" y="8" width="40" height="18" rx="9" fill="white"/>
</g>
<path d="M15.363 21V19.845L18.333 17.04C18.5677 16.8273 18.74 16.6367 18.85 16.468C18.96 16.2993 19.0333 16.1453 19.07 16.006C19.114 15.8667 19.136 15.7383 19.136 15.621C19.136 15.313 19.0297 15.0783 18.817 14.917C18.6117 14.7483 18.3073 14.664 17.904 14.664C17.5813 14.664 17.2807 14.7263 17.002 14.851C16.7307 14.9757 16.4997 15.17 16.309 15.434L15.011 14.598C15.3043 14.158 15.715 13.8097 16.243 13.553C16.771 13.2963 17.3797 13.168 18.069 13.168C18.641 13.168 19.1397 13.2633 19.565 13.454C19.9977 13.6373 20.3313 13.8977 20.566 14.235C20.808 14.5723 20.929 14.9757 20.929 15.445C20.929 15.6943 20.896 15.9437 20.83 16.193C20.7713 16.435 20.6467 16.6917 20.456 16.963C20.2727 17.2343 20.0013 17.5387 19.642 17.876L17.178 20.197L16.837 19.548H21.182V21H15.363ZM24.9973 21.132C24.3666 21.132 23.8019 20.978 23.3033 20.67C22.8046 20.3547 22.4123 19.9 22.1263 19.306C21.8403 18.712 21.6973 17.9933 21.6973 17.15C21.6973 16.3067 21.8403 15.588 22.1263 14.994C22.4123 14.4 22.8046 13.949 23.3033 13.641C23.8019 13.3257 24.3666 13.168 24.9973 13.168C25.6353 13.168 26.1999 13.3257 26.6913 13.641C27.1899 13.949 27.5823 14.4 27.8683 14.994C28.1543 15.588 28.2973 16.3067 28.2973 17.15C28.2973 17.9933 28.1543 18.712 27.8683 19.306C27.5823 19.9 27.1899 20.3547 26.6913 20.67C26.1999 20.978 25.6353 21.132 24.9973 21.132ZM24.9973 19.625C25.2979 19.625 25.5583 19.5407 25.7783 19.372C26.0056 19.2033 26.1816 18.9357 26.3063 18.569C26.4383 18.2023 26.5043 17.7293 26.5043 17.15C26.5043 16.5707 26.4383 16.0977 26.3063 15.731C26.1816 15.3643 26.0056 15.0967 25.7783 14.928C25.5583 14.7593 25.2979 14.675 24.9973 14.675C24.7039 14.675 24.4436 14.7593 24.2163 14.928C23.9963 15.0967 23.8203 15.3643 23.6883 15.731C23.5636 16.0977 23.5013 16.5707 23.5013 17.15C23.5013 17.7293 23.5636 18.2023 23.6883 18.569C23.8203 18.9357 23.9963 19.2033 24.2163 19.372C24.4436 19.5407 24.7039 19.625 24.9973 19.625ZM28.8341 21V19.845L31.8041 17.04C32.0388 16.8273 32.2111 16.6367 32.3211 16.468C32.4311 16.2993 32.5045 16.1453 32.5411 16.006C32.5851 15.8667 32.6071 15.7383 32.6071 15.621C32.6071 15.313 32.5008 15.0783 32.2881 14.917C32.0828 14.7483 31.7785 14.664 31.3751 14.664C31.0525 14.664 30.7518 14.7263 30.4731 14.851C30.2018 14.9757 29.9708 15.17 29.7801 15.434L28.4821 14.598C28.7755 14.158 29.1861 13.8097 29.7141 13.553C30.2421 13.2963 30.8508 13.168 31.5401 13.168C32.1121 13.168 32.6108 13.2633 33.0361 13.454C33.4688 13.6373 33.8025 13.8977 34.0371 14.235C34.2791 14.5723 34.4001 14.9757 34.4001 15.445C34.4001 15.6943 34.3671 15.9437 34.3011 16.193C34.2425 16.435 34.1178 16.6917 33.9271 16.963C33.7438 17.2343 33.4725 17.5387 33.1131 17.876L30.6491 20.197L30.3081 19.548H34.6531V21H28.8341ZM37.6654 21.132C37.1301 21.132 36.5984 21.0623 36.0704 20.923C35.5424 20.7763 35.0951 20.571 34.7284 20.307L35.4214 18.943C35.7147 19.1557 36.0557 19.3243 36.4444 19.449C36.8331 19.5737 37.2254 19.636 37.6214 19.636C38.0687 19.636 38.4207 19.548 38.6774 19.372C38.9341 19.196 39.0624 18.954 39.0624 18.646C39.0624 18.3527 38.9487 18.1217 38.7214 17.953C38.4941 17.7843 38.1274 17.7 37.6214 17.7H36.8074V16.523L38.9524 14.092L39.1504 14.73H35.1134V13.3H40.5034V14.455L38.3694 16.886L37.4674 16.369H37.9844C38.9304 16.369 39.6454 16.5817 40.1294 17.007C40.6134 17.4323 40.8554 17.9787 40.8554 18.646C40.8554 19.0787 40.7417 19.4857 40.5144 19.867C40.2871 20.241 39.9387 20.5453 39.4694 20.78C39.0001 21.0147 38.3987 21.132 37.6654 21.132Z" fill="black"/>
<defs>
<filter id="filter0_d_210_737" x="0" y="0" width="56" height="34" filterUnits="userSpaceOnUse" color-interpolation-filters="sRGB">
<feFlood flood-opacity="0" result="BackgroundImageFix"/>
<feColorMatrix in="SourceAlpha" type="matrix" values="0 0 0 0 0 0 0 0 0 0 0 0 0 0 0 0 0 0 127 0" result="hardAlpha"/>
<feOffset/>
<feGaussianBlur stdDeviation="4"/>
<feComposite in2="hardAlpha" operator="out"/>
<feColorMatrix type="matrix" values="0 0 0 0 0 0 0 0 0 0 0 0 0 0 0 0 0 0 0.15 0"/>
<feBlend mode="normal" in2="BackgroundImageFix" result="effect1_dropShadow_210_737"/>
<feBlend mode="normal" in="SourceGraphic" in2="effect1_dropShadow_210_737" result="shape"/>
</filter>
</defs>
</svg>
