<svg width="200" height="50" viewBox="0 0 161 37" fill="none" xmlns="http://www.w3.org/2000/svg">
<path d="M38.99 17.45H49.07V21.35H38.99V17.45ZM39.35 29H34.49V8H50.36V11.9H39.35V29ZM62.1514 29V25.85L61.8514 25.16V19.52C61.8514 18.52 61.5414 17.74 60.9214 17.18C60.3214 16.62 59.3914 16.34 58.1314 16.34C57.2714 16.34 56.4214 16.48 55.5814 16.76C54.7614 17.02 54.0614 17.38 53.4814 17.84L51.8014 14.57C52.6814 13.95 53.7414 13.47 54.9814 13.13C56.2214 12.79 57.4814 12.62 58.7614 12.62C61.2214 12.62 63.1314 13.2 64.4914 14.36C65.8514 15.52 66.5314 17.33 66.5314 19.79V29H62.1514ZM57.2314 29.24C55.9714 29.24 54.8914 29.03 53.9914 28.61C53.0914 28.17 52.4014 27.58 51.9214 26.84C51.4414 26.1 51.2014 25.27 51.2014 24.35C51.2014 23.39 51.4314 22.55 51.8914 21.83C52.3714 21.11 53.1214 20.55 54.1414 20.15C55.1614 19.73 56.4914 19.52 58.1314 19.52H62.4214V22.25H58.6414C57.5414 22.25 56.7814 22.43 56.3614 22.79C55.9614 23.15 55.7614 23.6 55.7614 24.14C55.7614 24.74 55.9914 25.22 56.4514 25.58C56.9314 25.92 57.5814 26.09 58.4014 26.09C59.1814 26.09 59.8814 25.91 60.5014 25.55C61.1214 25.17 61.5714 24.62 61.8514 23.9L62.5714 26.06C62.2314 27.1 61.6114 27.89 60.7114 28.43C59.8114 28.97 58.6514 29.24 57.2314 29.24ZM70.167 29V12.86H74.637V17.42L74.007 16.1C74.487 14.96 75.257 14.1 76.317 13.52C77.377 12.92 78.667 12.62 80.187 12.62V16.94C79.987 16.92 79.807 16.91 79.647 16.91C79.487 16.89 79.317 16.88 79.137 16.88C77.857 16.88 76.817 17.25 76.017 17.99C75.237 18.71 74.847 19.84 74.847 21.38V29H70.167ZM90.2626 29.24C88.4226 29.24 86.8026 28.88 85.4026 28.16C84.0226 27.44 82.9526 26.46 82.1926 25.22C81.4326 23.96 81.0526 22.53 81.0526 20.93C81.0526 19.31 81.4226 17.88 82.1626 16.64C82.9226 15.38 83.9526 14.4 85.2526 13.7C86.5526 12.98 88.0226 12.62 89.6626 12.62C91.2426 12.62 92.6626 12.96 93.9226 13.64C95.2026 14.3 96.2126 15.26 96.9526 16.52C97.6926 17.76 98.0626 19.25 98.0626 20.99C98.0626 21.17 98.0526 21.38 98.0326 21.62C98.0126 21.84 97.9926 22.05 97.9726 22.25H84.8626V19.52H95.5126L93.7126 20.33C93.7126 19.49 93.5426 18.76 93.2026 18.14C92.8626 17.52 92.3926 17.04 91.7926 16.7C91.1926 16.34 90.4926 16.16 89.6926 16.16C88.8926 16.16 88.1826 16.34 87.5626 16.7C86.9626 17.04 86.4926 17.53 86.1526 18.17C85.8126 18.79 85.6426 19.53 85.6426 20.39V21.11C85.6426 21.99 85.8326 22.77 86.2126 23.45C86.6126 24.11 87.1626 24.62 87.8626 24.98C88.5826 25.32 89.4226 25.49 90.3826 25.49C91.2426 25.49 91.9926 25.36 92.6326 25.1C93.2926 24.84 93.8926 24.45 94.4326 23.93L96.9226 26.63C96.1826 27.47 95.2526 28.12 94.1326 28.58C93.0126 29.02 91.7226 29.24 90.2626 29.24ZM103.975 29L98.1554 12.86H102.565L107.395 26.75H105.295L110.335 12.86H114.295L119.185 26.75H117.085L122.065 12.86H126.205L120.355 29H115.825L111.535 17.09H112.915L108.475 29H103.975ZM135.352 29.24C133.512 29.24 131.892 28.88 130.492 28.16C129.112 27.44 128.042 26.46 127.282 25.22C126.522 23.96 126.142 22.53 126.142 20.93C126.142 19.31 126.512 17.88 127.252 16.64C128.012 15.38 129.042 14.4 130.342 13.7C131.642 12.98 133.112 12.62 134.752 12.62C136.332 12.62 137.752 12.96 139.012 13.64C140.292 14.3 141.302 15.26 142.042 16.52C142.782 17.76 143.152 19.25 143.152 20.99C143.152 21.17 143.142 21.38 143.122 21.62C143.102 21.84 143.082 22.05 143.062 22.25H129.952V19.52H140.602L138.802 20.33C138.802 19.49 138.632 18.76 138.292 18.14C137.952 17.52 137.482 17.04 136.882 16.7C136.282 16.34 135.582 16.16 134.782 16.16C133.982 16.16 133.272 16.34 132.652 16.7C132.052 17.04 131.582 17.53 131.242 18.17C130.902 18.79 130.732 19.53 130.732 20.39V21.11C130.732 21.99 130.922 22.77 131.302 23.45C131.702 24.11 132.252 24.62 132.952 24.98C133.672 25.32 134.512 25.49 135.472 25.49C136.332 25.49 137.082 25.36 137.722 25.1C138.382 24.84 138.982 24.45 139.522 23.93L142.012 26.63C141.272 27.47 140.342 28.12 139.222 28.58C138.102 29.02 136.812 29.24 135.352 29.24ZM145.667 29V6.74H150.347V29H145.667ZM154.091 29V6.74H158.771V29H154.091Z" fill="white"/>
<path d="M22 6.78336V2H6.33159V16.395C2.61522 17.9445 0 21.5601 0 25.782C0 31.4188 4.67987 36 10.438 36C16.196 36 20.8759 31.4188 20.8759 25.782C20.8759 20.9538 17.4348 16.934 12.8467 15.856V14.8005H20.8759V10.0172H12.8467V6.78336H22ZM14.9572 25.782C14.9572 28.2074 12.9385 30.1836 10.4609 30.1836C7.98332 30.1836 5.96455 28.2074 5.96455 25.782C5.96455 23.3567 7.98332 21.3804 10.4609 21.3804C12.9385 21.3804 14.9572 23.3567 14.9572 25.782Z" fill="#FFF173"/>
</svg>
