<svg width="74" height="45" viewBox="0 0 74 45" fill="none" xmlns="http://www.w3.org/2000/svg">
<g filter="url(#filter0_d_505_356)">
<rect x="10.8518" y="11" width="51.8519" height="23.3333" rx="11.6667" fill="#262626"/>
</g>
<path d="M20.3963 28.8889V27.3917L24.2463 23.7556C24.5505 23.4799 24.7739 23.2327 24.9165 23.0141C25.0591 22.7954 25.1542 22.5958 25.2017 22.4152C25.2587 22.2346 25.2873 22.0682 25.2873 21.9161C25.2873 21.5169 25.1494 21.2127 24.8737 21.0035C24.6076 20.7849 24.2131 20.6756 23.6902 20.6756C23.272 20.6756 22.8822 20.7564 22.521 20.918C22.1692 21.0796 21.8698 21.3315 21.6226 21.6737L19.94 20.59C20.3203 20.0196 20.8526 19.5681 21.5371 19.2354C22.2215 18.9027 23.0105 18.7363 23.9041 18.7363C24.6456 18.7363 25.292 18.8599 25.8434 19.107C26.4042 19.3447 26.8368 19.6822 27.141 20.1195C27.4547 20.5567 27.6115 21.0796 27.6115 21.688C27.6115 22.0112 27.5687 22.3344 27.4832 22.6576C27.4071 22.9713 27.2455 23.304 26.9984 23.6558C26.7607 24.0075 26.409 24.402 25.9432 24.8393L22.7491 27.848L22.3071 27.0067H27.9395V28.8889H20.3963ZM32.8852 29.06C32.0677 29.06 31.3357 28.8604 30.6893 28.4611C30.0429 28.0524 29.5343 27.463 29.1636 26.693C28.7928 25.923 28.6074 24.9914 28.6074 23.8982C28.6074 22.8049 28.7928 21.8733 29.1636 21.1033C29.5343 20.3333 30.0429 19.7487 30.6893 19.3495C31.3357 18.9407 32.0677 18.7363 32.8852 18.7363C33.7123 18.7363 34.4442 18.9407 35.0811 19.3495C35.7276 19.7487 36.2361 20.3333 36.6069 21.1033C36.9776 21.8733 37.163 22.8049 37.163 23.8982C37.163 24.9914 36.9776 25.923 36.6069 26.693C36.2361 27.463 35.7276 28.0524 35.0811 28.4611C34.4442 28.8604 33.7123 29.06 32.8852 29.06ZM32.8852 27.1065C33.275 27.1065 33.6124 26.9972 33.8976 26.7785C34.1923 26.5599 34.4205 26.2129 34.5821 25.7376C34.7532 25.2623 34.8387 24.6491 34.8387 23.8982C34.8387 23.1472 34.7532 22.534 34.5821 22.0587C34.4205 21.5834 34.1923 21.2364 33.8976 21.0178C33.6124 20.7991 33.275 20.6898 32.8852 20.6898C32.505 20.6898 32.1675 20.7991 31.8728 21.0178C31.5876 21.2364 31.3595 21.5834 31.1884 22.0587C31.0268 22.534 30.946 23.1472 30.946 23.8982C30.946 24.6491 31.0268 25.2623 31.1884 25.7376C31.3595 26.2129 31.5876 26.5599 31.8728 26.7785C32.1675 26.9972 32.505 27.1065 32.8852 27.1065ZM37.8589 28.8889V27.3917L41.7089 23.7556C42.0131 23.4799 42.2365 23.2327 42.3791 23.0141C42.5217 22.7954 42.6168 22.5958 42.6643 22.4152C42.7213 22.2346 42.7498 22.0682 42.7498 21.9161C42.7498 21.5169 42.612 21.2127 42.3363 21.0035C42.0702 20.7849 41.6756 20.6756 41.1528 20.6756C40.7345 20.6756 40.3448 20.7564 39.9835 20.918C39.6318 21.0796 39.3324 21.3315 39.0852 21.6737L37.4026 20.59C37.7829 20.0196 38.3152 19.5681 38.9997 19.2354C39.6841 18.9027 40.4731 18.7363 41.3667 18.7363C42.1082 18.7363 42.7546 18.8599 43.306 19.107C43.8668 19.3447 44.2993 19.6822 44.6035 20.1195C44.9173 20.5567 45.0741 21.0796 45.0741 21.688C45.0741 22.0112 45.0313 22.3344 44.9458 22.6576C44.8697 22.9713 44.7081 23.304 44.461 23.6558C44.2233 24.0075 43.8716 24.402 43.4058 24.8393L40.2117 27.848L39.7697 27.0067H45.4021V28.8889H37.8589ZM49.3069 29.06C48.6129 29.06 47.9237 28.9697 47.2393 28.7891C46.5548 28.599 45.975 28.3328 45.4997 27.9906L46.398 26.2224C46.7782 26.4981 47.2203 26.7167 47.7241 26.8783C48.2279 27.0399 48.7365 27.1208 49.2498 27.1208C49.8297 27.1208 50.286 27.0067 50.6187 26.7785C50.9514 26.5504 51.1178 26.2367 51.1178 25.8374C51.1178 25.4572 50.9705 25.1577 50.6758 24.9391C50.3811 24.7204 49.9058 24.6111 49.2498 24.6111H48.1947V23.0854L50.9752 19.9341L51.2319 20.7611H45.9987V18.9074H52.9858V20.4046L50.2195 23.5559L49.0502 22.8858H49.7204C50.9467 22.8858 51.8735 23.1614 52.5009 23.7128C53.1284 24.2641 53.4421 24.9724 53.4421 25.8374C53.4421 26.3983 53.2947 26.9259 53 27.4202C52.7053 27.905 52.2538 28.2995 51.6454 28.6037C51.037 28.9079 50.2575 29.06 49.3069 29.06Z" fill="white"/>
<defs>
<filter id="filter0_d_505_356" x="0.481436" y="0.629629" width="72.5925" height="44.0741" filterUnits="userSpaceOnUse" color-interpolation-filters="sRGB">
<feFlood flood-opacity="0" result="BackgroundImageFix"/>
<feColorMatrix in="SourceAlpha" type="matrix" values="0 0 0 0 0 0 0 0 0 0 0 0 0 0 0 0 0 0 127 0" result="hardAlpha"/>
<feOffset/>
<feGaussianBlur stdDeviation="5.18519"/>
<feComposite in2="hardAlpha" operator="out"/>
<feColorMatrix type="matrix" values="0 0 0 0 0 0 0 0 0 0 0 0 0 0 0 0 0 0 0.15 0"/>
<feBlend mode="normal" in2="BackgroundImageFix" result="effect1_dropShadow_505_356"/>
<feBlend mode="normal" in="SourceGraphic" in2="effect1_dropShadow_505_356" result="shape"/>
</filter>
</defs>
</svg>
