<svg width="209" height="45" viewBox="0 0 209 45" fill="none" xmlns="http://www.w3.org/2000/svg">
<path d="M48.5793 20.0444H62.0193V25.2444H48.5793V20.0444ZM49.0593 35.4444H42.5793V7.44444H63.7393V12.6444H49.0593V35.4444ZM79.4612 35.4444V31.2444L79.0612 30.3244V22.8044C79.0612 21.4711 78.6478 20.4311 77.8212 19.6844C77.0212 18.9378 75.7812 18.5644 74.1012 18.5644C72.9545 18.5644 71.8212 18.7511 70.7012 19.1244C69.6078 19.4711 68.6745 19.9511 67.9012 20.5644L65.6612 16.2044C66.8345 15.3778 68.2478 14.7378 69.9012 14.2844C71.5545 13.8311 73.2345 13.6044 74.9412 13.6044C78.2212 13.6044 80.7678 14.3778 82.5812 15.9244C84.3945 17.4711 85.3012 19.8844 85.3012 23.1644V35.4444H79.4612ZM72.9012 35.7644C71.2212 35.7644 69.7812 35.4844 68.5812 34.9244C67.3812 34.3378 66.4612 33.5511 65.8212 32.5644C65.1812 31.5778 64.8612 30.4711 64.8612 29.2444C64.8612 27.9644 65.1678 26.8444 65.7812 25.8844C66.4212 24.9244 67.4212 24.1778 68.7812 23.6444C70.1412 23.0844 71.9145 22.8044 74.1012 22.8044H79.8212V26.4444H74.7812C73.3145 26.4444 72.3012 26.6844 71.7412 27.1644C71.2078 27.6444 70.9412 28.2444 70.9412 28.9644C70.9412 29.7644 71.2478 30.4044 71.8612 30.8844C72.5012 31.3378 73.3678 31.5644 74.4612 31.5644C75.5012 31.5644 76.4345 31.3244 77.2612 30.8444C78.0878 30.3378 78.6878 29.6044 79.0612 28.6444L80.0212 31.5244C79.5678 32.9111 78.7412 33.9644 77.5412 34.6844C76.3412 35.4044 74.7945 35.7644 72.9012 35.7644ZM90.1487 35.4444V13.9244H96.1087V20.0044L95.2687 18.2444C95.9087 16.7244 96.9353 15.5778 98.3487 14.8044C99.762 14.0044 101.482 13.6044 103.509 13.6044V19.3644C103.242 19.3378 103.002 19.3244 102.789 19.3244C102.575 19.2978 102.349 19.2844 102.109 19.2844C100.402 19.2844 99.0153 19.7778 97.9487 20.7644C96.9087 21.7244 96.3887 23.2311 96.3887 25.2844V35.4444H90.1487ZM116.943 35.7644C114.489 35.7644 112.329 35.2844 110.463 34.3244C108.623 33.3644 107.196 32.0578 106.183 30.4044C105.169 28.7244 104.663 26.8178 104.663 24.6844C104.663 22.5244 105.156 20.6178 106.143 18.9644C107.156 17.2844 108.529 15.9778 110.263 15.0444C111.996 14.0844 113.956 13.6044 116.143 13.6044C118.249 13.6044 120.143 14.0578 121.823 14.9644C123.529 15.8444 124.876 17.1244 125.863 18.8044C126.849 20.4578 127.343 22.4444 127.343 24.7644C127.343 25.0044 127.329 25.2844 127.303 25.6044C127.276 25.8978 127.249 26.1778 127.223 26.4444H109.743V22.8044H123.943L121.543 23.8844C121.543 22.7644 121.316 21.7911 120.863 20.9644C120.409 20.1378 119.783 19.4978 118.983 19.0444C118.183 18.5644 117.249 18.3244 116.183 18.3244C115.116 18.3244 114.169 18.5644 113.343 19.0444C112.543 19.4978 111.916 20.1511 111.463 21.0044C111.009 21.8311 110.783 22.8178 110.783 23.9644V24.9244C110.783 26.0978 111.036 27.1378 111.543 28.0444C112.076 28.9244 112.809 29.6044 113.743 30.0844C114.703 30.5378 115.823 30.7644 117.103 30.7644C118.249 30.7644 119.249 30.5911 120.103 30.2444C120.983 29.8978 121.783 29.3778 122.503 28.6844L125.823 32.2844C124.836 33.4044 123.596 34.2711 122.103 34.8844C120.609 35.4711 118.889 35.7644 116.943 35.7644ZM135.226 35.4444L127.466 13.9244H133.346L139.786 32.4444H136.986L143.706 13.9244H148.986L155.506 32.4444H152.706L159.346 13.9244H164.866L157.066 35.4444H151.026L145.306 19.5644H147.146L141.226 35.4444H135.226ZM177.061 35.7644C174.608 35.7644 172.448 35.2844 170.581 34.3244C168.741 33.3644 167.315 32.0578 166.301 30.4044C165.288 28.7244 164.781 26.8178 164.781 24.6844C164.781 22.5244 165.275 20.6178 166.261 18.9644C167.275 17.2844 168.648 15.9778 170.381 15.0444C172.115 14.0844 174.075 13.6044 176.261 13.6044C178.368 13.6044 180.261 14.0578 181.941 14.9644C183.648 15.8444 184.995 17.1244 185.981 18.8044C186.968 20.4578 187.461 22.4444 187.461 24.7644C187.461 25.0044 187.448 25.2844 187.421 25.6044C187.395 25.8978 187.368 26.1778 187.341 26.4444H169.861V22.8044H184.061L181.661 23.8844C181.661 22.7644 181.435 21.7911 180.981 20.9644C180.528 20.1378 179.901 19.4978 179.101 19.0444C178.301 18.5644 177.368 18.3244 176.301 18.3244C175.235 18.3244 174.288 18.5644 173.461 19.0444C172.661 19.4978 172.035 20.1511 171.581 21.0044C171.128 21.8311 170.901 22.8178 170.901 23.9644V24.9244C170.901 26.0978 171.155 27.1378 171.661 28.0444C172.195 28.9244 172.928 29.6044 173.861 30.0844C174.821 30.5378 175.941 30.7644 177.221 30.7644C178.368 30.7644 179.368 30.5911 180.221 30.2444C181.101 29.8978 181.901 29.3778 182.621 28.6844L185.941 32.2844C184.955 33.4044 183.715 34.2711 182.221 34.8844C180.728 35.4711 179.008 35.7644 177.061 35.7644ZM190.816 35.4444V5.76444H197.056V35.4444H190.816ZM202.047 35.4444V5.76444H208.287V35.4444H202.047Z" fill="#262626"/>
<path d="M28.5925 6.53398V0.333336H8.2816V18.9935C3.46408 21.0022 0.0739746 25.689 0.0739746 31.1619C0.0739746 38.4688 6.14048 44.4074 13.6047 44.4074C21.0688 44.4074 27.1353 38.4688 27.1353 31.1619C27.1353 24.903 22.6747 19.6922 16.7271 18.2948V16.9266H27.1353V10.726H16.7271V6.53398H28.5925ZM19.463 31.1619C19.463 34.3059 16.8461 36.8677 13.6344 36.8677C10.4227 36.8677 7.80579 34.3059 7.80579 31.1619C7.80579 28.0179 10.4227 25.4561 13.6344 25.4561C16.8461 25.4561 19.463 28.0179 19.463 31.1619Z" fill="#262626"/>
</svg>
